<svg xmlns="http://www.w3.org/2000/svg" width="58" height="43" viewBox="0 0 58 43"><g><g><path fill="#fff" d="M57.934 37.447c.034.556.052 1.083.052 1.633 0 1.33-.099 2.81-.29 3.92H.29C.099 41.89 0 40.41 0 39.08c0-.55.017-1.077.052-1.633zm-.154-1.666H.206C1.43 26.062 8.083 17.63 17.23 13.748l5.142 17.868h13.33l5.097-17.851c9.127 3.893 15.76 12.297 16.98 22.016zm-45.357-7.689c0-1.56-1.326-2.826-2.96-2.826-1.633 0-2.955 1.266-2.955 2.826 0 1.561 1.322 2.824 2.956 2.824 1.633 0 2.959-1.263 2.959-2.824zm38.948 0c0-1.56-1.326-2.826-2.96-2.826-1.633 0-2.955 1.266-2.955 2.826 0 1.561 1.322 2.824 2.956 2.824 1.633 0 2.959-1.263 2.959-2.824zM24.087 11.826V7.923l-1.701-1.667 6.58-6.244 6.51 6.244-1.798 1.667v3.903c2.035.286 3.635.766 5.32 1.362l-4.8 17.04H23.855L18.906 13.18c1.677-.594 3.437-1.07 5.18-1.354zm6.83 13.434c0-1.013-.863-1.835-1.924-1.835s-1.921.822-1.921 1.835c0 1.014.86 1.836 1.92 1.836 1.062 0 1.925-.822 1.925-1.836zm.796-7.57c0-1.434-1.217-2.598-2.72-2.598-1.503 0-2.72 1.164-2.72 2.599 0 1.438 1.217 2.602 2.72 2.602 1.503 0 2.72-1.164 2.72-2.602z"/></g></g></svg>