<svg xmlns="http://www.w3.org/2000/svg" width="112" height="27" viewBox="0 0 112 27"><defs><linearGradient id="cjida" x1="14" x2="14" y1="27" y2="0" gradientUnits="userSpaceOnUse"><stop offset="0" stop-color="#10d5db"/><stop offset="1" stop-color="#256dc2"/></linearGradient><linearGradient id="cjidb" x1="42" x2="42" y1="27" y2="0" gradientUnits="userSpaceOnUse"><stop offset="0" stop-color="#10d5db"/><stop offset="1" stop-color="#256dc2"/></linearGradient><linearGradient id="cjidc" x1="70" x2="70" y1="27" y2="0" gradientUnits="userSpaceOnUse"><stop offset="0" stop-color="#10d5db"/><stop offset="1" stop-color="#256dc2"/></linearGradient><linearGradient id="cjidd" x1="98" x2="98" y1="27" y2="0" gradientUnits="userSpaceOnUse"><stop offset="0" stop-color="#10d5db"/><stop offset="1" stop-color="#256dc2"/></linearGradient></defs><g><g><path fill="url(#cjida)" d="M14 0l4.614 8.485 9.384 1.828-6.532 7.072 1.185 9.614L14 22.885l-8.652 4.114 1.186-9.614-6.532-7.072 9.384-1.828L14 0"/></g><g><path fill="url(#cjidb)" d="M42 0l4.614 8.485 9.384 1.828-6.532 7.072 1.185 9.614L42 22.885l-8.652 4.114 1.186-9.614-6.532-7.072 9.384-1.828L42 0"/></g><g><path fill="url(#cjidc)" d="M70 0l4.614 8.485 9.384 1.828-6.532 7.072 1.185 9.614L70 22.885l-8.652 4.114 1.186-9.614-6.532-7.072 9.384-1.828L70 0"/></g><g><path fill="url(#cjidd)" d="M98 0l4.614 8.485 9.384 1.828-6.532 7.072 1.185 9.614L98 22.885l-8.652 4.114 1.186-9.614-6.532-7.072 9.384-1.828L98 0"/></g></g></svg>