<svg xmlns="http://www.w3.org/2000/svg" width="58" height="38" viewBox="0 0 58 38"><g><g><path fill="#fff" d="M25.438 27.717l2.22 10.293H.195c-.009-.286-.012-.16-.015-.206 1.383-1.121 11.325-8.776 25.259-10.087zm8.179.012c7.495.742 15.749 3.568 24.218 10.083-.003.044-.006-.088-.015.198H30.944zm20.49-7.42A28.268 28.268 0 0 1 58 34.662c-8.228-6.343-16.256-9.264-23.586-10.127l4.407-16.91c3.204 1.134 6.144 2.856 8.71 4.864h.029c9.222 0 2.119-12.252 1.983-12.487 14.583 14.424 4.61 20.338 4.61 20.338s-.015-.016-.047-.03zm-7.295.031c0-1.806-1.482-3.269-3.309-3.269-1.826 0-3.305 1.463-3.305 3.27 0 1.806 1.479 3.271 3.305 3.271 1.827 0 3.309-1.465 3.309-3.272zM.014 34.68c0-5.225 1.412-10.12 3.88-14.339 0 0-9.974-5.85 4.61-20.273-.137.235-7.24 12.548 1.98 12.551a28.962 28.962 0 0 1 10.512-5.506l3.775 17.42C10.095 26.135.014 34.68.014 34.68zM14.511 17.07c-1.827 0-3.306 1.463-3.306 3.27 0 1.806 1.479 3.271 3.306 3.271 1.826 0 3.308-1.465 3.308-3.272 0-1.806-1.482-3.269-3.308-3.269zm17.297 10.413L29.14 37.706l-2.212-10.211-.672-3.1L22.43 6.742a29.41 29.41 0 0 1 6.576-.74c2.815 0 5.538.396 8.112 1.139l-4.502 17.251zM27.102 8.999c0 1.04.853 1.887 1.905 1.887a1.897 1.897 0 0 0 1.905-1.887 1.894 1.894 0 0 0-1.905-1.884 1.894 1.894 0 0 0-1.905 1.884zm0 8.03c0 1.04.853 1.886 1.905 1.886a1.897 1.897 0 0 0 1.905-1.887c0-1.04-.853-1.884-1.905-1.884a1.894 1.894 0 0 0-1.905 1.884z"/></g></g></svg>