<svg xmlns="http://www.w3.org/2000/svg" width="101" height="99" viewBox="0 0 101 99"><defs><clipPath id="nnxxa"><path fill="#fff" d="M51 0c27.614 0 50 22.161 50 49.5C101 76.836 78.614 99 51 99S1 76.836 1 49.5C1 22.16 23.386 0 51 0z"/></clipPath><linearGradient id="nnxxb" x1="51.08" x2="50.92" y1="74.24" y2="24.76" gradientUnits="userSpaceOnUse"><stop offset="0" stop-color="#256dc2"/><stop offset="1" stop-color="#10d5db"/></linearGradient></defs><g><g><path fill="none" stroke="#d100bb" stroke-miterlimit="20" stroke-width="6" d="M51 0c27.614 0 50 22.161 50 49.5C101 76.836 78.614 99 51 99S1 76.836 1 49.5C1 22.16 23.386 0 51 0z" clip-path="url(&quot;#nnxxa&quot;)"/></g><g><path fill="url(#nnxxb)" d="M81.084 30.111V42.59c0 2.94-1.703 7.049-3.783 9.128L56.343 72.676c-2.079 2.079-5.482 2.079-7.562 0l-15.61-15.61c-2.08-2.08-2.08-5.484 0-7.564l20.958-20.957c2.08-2.08 6.188-3.781 9.129-3.781h12.477c2.941 0 5.349 2.406 5.349 5.347zm-7.131 7.13a5.347 5.347 0 1 0-10.695.001 5.347 5.347 0 0 0 10.695-.001zm-48.65 17.304l19.071 19.071c-2.02 1.067-4.593.755-6.288-.94l-15.61-15.61c-2.08-2.08-2.08-5.484 0-7.564l20.958-20.957c2.08-2.08 6.187-3.781 9.128-3.781l-27.26 27.26a1.788 1.788 0 0 0 0 2.52z"/></g></g></svg>