<svg xmlns="http://www.w3.org/2000/svg" width="100" height="100" viewBox="0 0 100 100"><defs><clipPath id="bppca"><path fill="#fff" d="M50 0c27.614 0 50 22.385 50 50 0 27.614-22.386 50-50 50S0 77.613 0 50C0 22.384 22.386 0 50 0z"/></clipPath><linearGradient id="bppcb" x1="49.96" x2="49.04" y1="80" y2="21" gradientUnits="userSpaceOnUse"><stop offset="0" stop-color="#256dc2"/><stop offset="1" stop-color="#10d5db"/></linearGradient></defs><g><g><path fill="none" stroke="#d100bb" stroke-miterlimit="20" stroke-width="6" d="M50 0c27.614 0 50 22.385 50 50 0 27.614-22.386 50-50 50S0 77.613 0 50C0 22.384 22.386 0 50 0z" clip-path="url(&quot;#bppca&quot;)"/></g><g><path fill="url(#bppcb)" d="M33.768 60.332h31.463v19.665H33.768zm3.933 7.865H61.3v-3.932H37.7zm0 7.867H61.3V72.13H37.7zm27.53-35.398H33.768V21.001h31.463zm15.734 0v19.666c0 3.933-3.934 7.865-7.866 7.865h-3.934V56.4h-39.33v11.798h-3.933c-3.932 0-7.867-3.932-7.867-7.865V40.666c0-3.932 3.935-7.865 7.867-7.865h3.933V44.6h39.33V32.8h3.934c3.932 0 7.866 3.933 7.866 7.865z"/></g></g></svg>