<svg xmlns="http://www.w3.org/2000/svg" width="100" height="100" viewBox="0 0 100 100"><defs><clipPath id="s959a"><path fill="#fff" d="M50 0c27.614 0 50 22.385 50 50 0 27.614-22.386 50-50 50S0 77.613 0 50C0 22.384 22.386 0 50 0z"/></clipPath><linearGradient id="s959b" x1="50.38" x2="49.62" y1="76.21" y2="24.79" gradientUnits="userSpaceOnUse"><stop offset="0" stop-color="#256dc2"/><stop offset="1" stop-color="#10d5db"/></linearGradient></defs><g><g><path fill="none" stroke="#d100bb" stroke-miterlimit="20" stroke-width="6" d="M50 0c27.614 0 50 22.385 50 50 0 27.614-22.386 50-50 50S0 77.613 0 50C0 22.384 22.386 0 50 0z" clip-path="url(&quot;#s959a&quot;)"/></g><g><path fill="url(#s959b)" d="M47.325 52.508h23.706c0 13.088-10.616 23.703-23.706 23.703-13.088 0-23.701-10.615-23.701-23.703s10.613-23.701 23.701-23.701zm5.347-27.72c13.088 0 23.702 10.615 23.704 23.703H52.672z"/></g></g></svg>