<svg xmlns="http://www.w3.org/2000/svg" width="100" height="100" viewBox="0 0 100 100"><defs><clipPath id="zuo3a"><path fill="#fff" d="M50 0c27.614 0 50 22.385 50 50 0 27.614-22.386 50-50 50S0 77.613 0 50C0 22.384 22.386 0 50 0z"/></clipPath><linearGradient id="zuo3b" x1="49.77" x2="49.23" y1="70.86" y2="30.14" gradientUnits="userSpaceOnUse"><stop offset="0" stop-color="#256dc2"/><stop offset=".02" stop-color="#256dc2"/><stop offset="1" stop-color="#10d5db"/></linearGradient></defs><g><g><path fill="none" stroke="#d100bb" stroke-miterlimit="20" stroke-width="6" d="M50 0c27.614 0 50 22.385 50 50 0 27.614-22.386 50-50 50S0 77.613 0 50C0 22.384 22.386 0 50 0z" clip-path="url(&quot;#zuo3a&quot;)"/></g><g><path fill="url(#zuo3b)" d="M69.863 70.863H29.137c-1.61 0-2.91-1.301-2.91-2.911v-29.09c0-1.605 1.3-2.908 2.91-2.908h8.726v-2.91c0-1.605 1.301-2.908 2.91-2.908h17.453c1.61 0 2.91 1.303 2.91 2.908v2.91h8.727a2.908 2.908 0 0 1 2.91 2.908v29.09c0 1.61-1.301 2.91-2.91 2.91zm-2.909-29.09H55.318v-5.819H43.682v5.819H32.046v23.271h34.908zM36.409 44.68a1.455 1.455 0 0 1 0 2.908 1.454 1.454 0 1 1 0-2.908zm13.09 0a8.726 8.726 0 0 1 8.727 8.726c0 4.817-3.906 8.729-8.726 8.729s-8.728-3.912-8.728-8.729a8.727 8.727 0 0 1 8.728-8.726zm0 14.545a5.82 5.82 0 0 0 5.82-5.819 5.821 5.821 0 0 0-5.82-5.818 5.821 5.821 0 0 0-5.817 5.818 5.82 5.82 0 0 0 5.818 5.819z"/></g></g></svg>