<svg xmlns="http://www.w3.org/2000/svg" width="68" height="47" viewBox="0 0 68 47"><g><g><path fill="#fff" d="M68.001 19.892c0 1.835-.43 3.577-1.195 5.109-.134.207-.26.439-.386.65-.15.247-.294.543-.434.794A34.117 34.117 0 0 0 61.88 38.72H6.233c-.57-4.14-1.872-8.127-3.768-11.66-.24-.448-.488-.976-.748-1.41-.26-.442-.533-.877-.816-1.305-.581-1.369-.902-2.88-.902-4.463 0-6.268 5.031-11.345 11.235-11.345 1.5 0 2.927.296 4.236.834-5.042.793-8.902 5.195-8.902 10.51 0 2.84 1.103 5.416 2.893 7.324.577.056 1.175.1 1.783.125a8.547 8.547 0 0 1-1.383-4.689c0-4.74 3.802-8.578 8.495-8.578.977 0 1.92.165 2.791.475.038.07.075.138.106.208-3.662.724-6.425 3.984-6.425 7.895 0 1.673.505 3.226 1.373 4.512a22.359 22.359 0 0 0 4.38-.976c2.233-.748 4.385-1.918 6.268-3.66.204-.186.403-.379.597-.579a17.4 17.4 0 0 0 2.385-3.08 7.688 7.688 0 0 0-.97-1.432l-3.413-5.05L33.814.001l8.71 12.374-4.526 6.43.076.051.05.083a17.246 17.246 0 0 0 3.024 3.664c1.896 1.724 4.058 2.876 6.3 3.611 1.43.473 2.896.776 4.348.949a8.076 8.076 0 0 0 1.376-4.523c0-3.911-2.76-7.171-6.425-7.895.034-.07.068-.139.106-.208a8.33 8.33 0 0 1 2.79-.475c4.694 0 8.496 3.839 8.496 8.578a8.56 8.56 0 0 1-1.38 4.685 32.02 32.02 0 0 0 1.794-.131 10.67 10.67 0 0 0 2.88-7.313c0-5.316-3.857-9.718-8.9-10.511a11.085 11.085 0 0 1 4.233-.834c6.203 0 11.235 5.088 11.235 11.356zM31.13 12.288c0 1.594 1.277 2.884 2.856 2.884 1.578 0 2.855-1.29 2.855-2.884 0-1.593-1.277-2.883-2.855-2.883-1.579 0-2.856 1.29-2.856 2.883zM19.76 34.348c0-1.207-.966-2.187-2.162-2.187-1.199 0-2.166.98-2.166 2.187 0 1.208.967 2.187 2.166 2.187 1.196 0 2.162-.979 2.162-2.187zm17.08-1.407c0-1.642-1.318-2.977-2.944-2.977s-2.945 1.335-2.945 2.977 1.319 2.976 2.945 2.976 2.944-1.334 2.944-2.976zm15.714 1.407c0-1.207-.967-2.187-2.162-2.187-1.2 0-2.166.98-2.166 2.187 0 1.208.967 2.187 2.166 2.187 1.195 0 2.162-.979 2.162-2.187zm8.99 9.2c0 1.163.059 2.07.172 3.45H6.396c.114-1.38.172-2.287.172-3.45 0-.23-.004-.69-.007-.69h54.99c-.003 0-.006.46-.006.69z"/></g></g></svg>