<svg xmlns="http://www.w3.org/2000/svg" width="22" height="21" viewBox="0 0 22 21"><defs><clipPath id="6bx9a"><path fill="#fff" d="M11.143.511c5.68 0 10.286 4.61 10.286 10.295 0 5.687-4.606 10.296-10.286 10.296S.857 16.492.857 10.806C.857 5.12 5.462.51 11.143.51z"/></clipPath></defs><g><g><g><path fill="#fff" d="M11.143.511c5.68 0 10.286 4.61 10.286 10.295 0 5.687-4.606 10.296-10.286 10.296S.857 16.492.857 10.806C.857 5.12 5.462.51 11.143.51z"/><path fill="none" stroke="#2377c5" stroke-linecap="round" stroke-linejoin="round" stroke-miterlimit="20" stroke-width="4" d="M11.143.511c5.68 0 10.286 4.61 10.286 10.295 0 5.687-4.606 10.296-10.286 10.296S.857 16.492.857 10.806C.857 5.12 5.462.51 11.143.51z" clip-path="url(&quot;#6bx9a&quot;)"/></g><g><path d="M5.991 10.43l1.212-1.214 3.03 3.033 4.85-4.853 1.212 1.213-4.85 4.854-1.211 1.213-1.212-1.213z"/></g></g></g></svg>